<?xml version="1.0" standalone="no"?><!DOCTYPE svg PUBLIC "-//W3C//DTD SVG 1.1//EN" "http://www.w3.org/Graphics/SVG/1.1/DTD/svg11.dtd"><svg t="1601175643628" class="icon" viewBox="0 0 1024 1024" version="1.1" xmlns="http://www.w3.org/2000/svg" p-id="4865" xmlns:xlink="http://www.w3.org/1999/xlink" width="128" height="128"><defs><style type="text/css"></style></defs><path d="M317.78133333 879.50222222H100.80711111c-22.64177778 0-41.07377778-18.54577778-41.07377778-41.41511111v-698.59555556c0-22.86933333 18.54577778-41.41511111 41.52888889-41.4151111h698.59555556c22.86933333 0 41.52888889 18.54577778 41.52888889 41.07377777V301.51111111c0 15.81511111 12.85688889 28.55822222 28.55822222 28.55822222 15.81511111 0 28.55822222-12.85688889 28.55822222-28.55822222V139.15022222c0-54.15822222-44.25955555-98.19022222-98.64533333-98.19022222H101.14844445c-54.49955555 0-98.64533333 44.14577778-98.64533334 98.64533333v698.48177778c0 54.49955555 43.91822222 98.64533333 98.304 98.64533334h216.97422222c15.81511111 0 28.55822222-12.74311111 28.55822222-28.55822223 0-15.92888889-12.74311111-28.672-28.55822222-28.672z m552.16355556-69.85955555c-15.81511111 0-28.55822222 12.85688889-28.55822222 28.55822222 0 22.86933333-18.432 41.30133333-41.41511112 41.30133333H797.58222222c-15.81511111 0-28.55822222 12.74311111-28.55822222 28.55822223 0 15.81511111 12.85688889 28.55822222 28.55822222 28.55822222h2.38933333c54.61333333 0 98.64533333-44.032 98.64533334-98.41777778-0.11377778-15.81511111-12.85688889-28.55822222-28.672-28.55822222z m0 0" fill="#ffffff" p-id="4866"></path><path d="M669.35466667 242.80177778c0-15.92888889-12.85688889-28.55822222-28.672-28.55822223H164.29511111c-16.04266667 0-28.672 12.85688889-28.672 28.55822223 0 15.92888889 12.85688889 28.55822222 28.672 28.55822222h476.38755556c16.04266667 0 28.672-12.85688889 28.672-28.55822222z m-505.17333334 200.13511111c-7.62311111 0-14.90488889 2.95822222-20.25244444 8.30577778-5.34755555 5.34755555-8.41955555 12.62933333-8.41955556 20.25244444 0 15.92888889 12.85688889 28.55822222 28.672 28.55822222H488.10666667c7.62311111 0 14.90488889-2.95822222 20.25244444-8.30577778 5.34755555-5.34755555 8.41955555-12.62933333 8.41955556-20.25244444 0-15.92888889-12.85688889-28.55822222-28.672-28.55822222H164.18133333z m846.73422222 94.89066666l-159.28888888-159.1751111c-14.90488889-14.90488889-39.02577778-15.01866667-53.93066667-0.11377778L432.24177778 743.87911111c-14.79111111 14.79111111-26.85155555 43.91822222-26.85155556 64.96711111v98.75911111c0 42.09777778 34.24711111 76.34488889 76.45866667 76.34488889h98.75911111c21.39022222 0 50.176-12.06044445 64.96711111-26.85155555L1011.14311111 591.64444445c14.67733333-14.67733333 14.67733333-38.912-0.22755556-53.8168889z m-405.84533333 378.88c-4.20977778 4.20977778-18.432 10.12622222-24.576 10.12622223h-98.75911111c-10.58133333 0-19.22844445-8.64711111-19.22844444-19.22844445V808.96c0-5.91644445 6.03022222-20.48 10.12622222-24.576l251.56266666-251.44888889 132.43733334 132.43733334-251.56266667 251.3351111z m291.95377778-291.84L764.58666667 492.43022222l60.07466666-59.96088889 132.43733334 132.43733334-60.07466667 59.96088888z m0 0" fill="#ffffff" p-id="4867"></path></svg>