<?xml version="1.0" standalone="no"?><!DOCTYPE svg PUBLIC "-//W3C//DTD SVG 1.1//EN" "http://www.w3.org/Graphics/SVG/1.1/DTD/svg11.dtd"><svg t="1601175978276" class="icon" viewBox="0 0 1024 1024" version="1.1" xmlns="http://www.w3.org/2000/svg" p-id="7158" xmlns:xlink="http://www.w3.org/1999/xlink" width="128" height="128"><defs><style type="text/css"></style></defs><path d="M547.84 510.464c0 0.512 0 0.512 0 0-0.512 27.136 0 29.184-12.8 33.28l-244.224 75.264-17.408-67.584L474.112 481.28l2.56-250.368h72.192l-1.024 279.552z m-107.008 427.008c2.56-2.56 5.632-4.096 8.192-6.656-187.904-20.992-369.664-215.04-363.52-408.576C94.208 251.904 291.84 100.864 508.928 98.816c193.536-2.048 372.736 155.136 417.28 329.216 3.584 2.048 20.992 26.112 36.864 46.592 27.648 35.328 34.304 51.2 39.424 58.368 0-2.048 0.512-5.12 0.512-6.656 11.776-272.384-207.872-507.392-494.08-504.32C246.784 24.576 14.848 217.088 15.36 516.096c0.512 239.616 175.616 440.832 428.032 487.424-10.752-17.92-12.8-53.76-2.56-66.048z" fill="#ffffff" p-id="7159"></path><path d="M948.224 832.512h-78.336c-24.576 0-44.032-19.456-44.032-44.032v-8.192c0-16.896 8.192-32.768 20.48-44.032 27.648-25.088 44.032-62.976 38.912-104.448-6.656-54.784-51.2-99.328-106.496-105.984-72.704-8.192-134.656 49.152-134.656 120.32 0 36.352 16.384 69.12 41.472 91.136 12.288 10.752 18.944 27.136 18.944 43.52v7.168c0 24.576-19.456 44.032-44.032 44.032h-78.336c-14.848 0-26.624 11.776-26.624 26.624v76.288h418.816v-76.288c0-14.848-11.264-26.112-26.112-26.112zM555.52 972.8c0 15.36 11.776 27.136 27.136 27.136H947.2c15.36 0 27.136-11.776 27.136-27.136v-0.512h-418.816v0.512z" fill="#ffffff" p-id="7160"></path></svg>