<?xml version="1.0" encoding="utf-8"?>
<!-- Generator: Adobe Illustrator 21.0.0, SVG Export Plug-In . SVG Version: 6.00 Build 0)  -->
<svg version="1.1" id="图层_1" xmlns="http://www.w3.org/2000/svg" xmlns:xlink="http://www.w3.org/1999/xlink" x="0px" y="0px"
	 viewBox="0 0 14 14" style="enable-background:new 0 0 14 14;" xml:space="preserve">
<style type="text/css">
	.st0{fill:#FFC15E;}
	.st1{fill:#FFFFFF;}
</style>
<circle class="st0" cx="7" cy="7" r="6.8"/>
<path class="st1" d="M8.4,7.4C8,7.4,7.7,7.7,7,7.7S6.1,7.4,5.6,7.4c-1.2,0-2.1,0.9-2.1,2.1v0.4c0,0.4,0.3,0.8,0.8,0.8h5.5
	c0.4,0,0.8-0.3,0.8-0.8V9.5C10.5,8.4,9.6,7.4,8.4,7.4z M9.8,9.9H4.3V9.5c0-0.7,0.6-1.4,1.3-1.4c0.2,0,0.6,0.3,1.4,0.3
	c0.8,0,1.2-0.3,1.4-0.3c0.7,0,1.4,0.6,1.4,1.4V9.9z M7,7.2c1.2,0,2.3-1,2.3-2.3S8.2,2.7,7,2.7s-2.3,1-2.3,2.3S5.8,7.2,7,7.2z M7,3.4
	c0.8,0,1.5,0.7,1.5,1.5S7.8,6.4,7,6.4S5.5,5.8,5.5,4.9S6.2,3.4,7,3.4z"/>
</svg>
