<?xml version="1.0" standalone="no"?><!DOCTYPE svg PUBLIC "-//W3C//DTD SVG 1.1//EN" "http://www.w3.org/Graphics/SVG/1.1/DTD/svg11.dtd"><svg t="1603609068700" class="icon" viewBox="0 0 1024 1024" version="1.1" xmlns="http://www.w3.org/2000/svg" p-id="7327" xmlns:xlink="http://www.w3.org/1999/xlink" width="128" height="128"><defs><style type="text/css"></style></defs><path d="M988 831.11H36.75a36 36 0 0 0-36 36 36 36 0 0 0 36 36h951.25a36 36 0 0 0 36-36 36 36 0 0 0-36-36zM952 135.5h-880a72 72 0 0 0-72 72V697a72 72 0 0 0 72 72h880a72 72 0 0 0 72-72V207.5a72 72 0 0 0-72-72z m0 561.79H72.75V207.17h879.25z" fill="#6F7CFF" p-id="7328"></path></svg>