<?xml version="1.0" standalone="no"?><!DOCTYPE svg PUBLIC "-//W3C//DTD SVG 1.1//EN" "http://www.w3.org/Graphics/SVG/1.1/DTD/svg11.dtd"><svg t="1600310552560" class="icon" viewBox="0 0 1024 1024" version="1.1" xmlns="http://www.w3.org/2000/svg" p-id="4295" xmlns:xlink="http://www.w3.org/1999/xlink" width="128" height="128"><defs><style type="text/css"></style></defs><path d="M476.16 155.136c0-5.632-4.608-9.728-9.728-9.728H189.44c-5.632 0-9.728 4.608-9.728 9.728v713.728c0 5.12 4.608 9.728 9.728 9.728h276.992c5.632 0 9.728-4.608 9.728-9.728V155.136z m55.296 197.12h278.528c37.888 0 68.096 30.72 68.096 68.096v441.856c0 37.888-30.72 68.096-68.096 68.096H472.576v-0.512c-3.072 0.512-6.656 0.512-9.728 0.512H194.048c-37.888 0-68.096-30.72-68.096-68.096v-701.44c0-37.888 30.72-68.096 68.096-68.096h268.8c37.888 0 68.096 30.72 68.096 68.096l0.512 191.488z m0 526.336l283.136-0.512c5.632 0 9.728-4.608 9.728-9.728V413.696c0-5.632-4.096-9.728-9.728-9.728l-283.648 0.512 0.512 474.112z" p-id="4296" fill="#919191"></path><path d="M371.712 338.944c11.776 0 22.528 5.12 28.16 13.312 5.632 8.192 5.632 18.944 0 26.624-5.632 8.192-16.384 13.312-28.16 13.312H285.184c-11.776 0-22.528-5.12-28.16-13.312-5.632-8.192-5.632-18.944 0-26.624 5.632-8.192 16.384-13.312 28.16-13.312h86.528z m0 130.048c17.92 0 32.768 11.776 32.768 26.624 0 14.848-14.336 26.624-32.768 26.624H285.184c-17.92 0-32.768-11.776-32.768-26.624 0-14.848 14.336-26.624 32.768-26.624h86.528z m347.136 86.528c17.92 0 32.768 11.776 32.768 26.624 0 14.848-14.336 26.624-32.768 26.624h-86.528c-17.92 0-32.256-11.776-32.256-26.624 0-14.848 14.336-26.624 32.256-26.624h86.528zM371.712 599.04c17.92 0 32.768 11.776 32.768 26.624 0 14.848-14.336 26.624-32.768 26.624H285.184c-17.92 0-32.768-11.776-32.768-26.624 0-14.848 14.336-26.624 32.768-26.624h86.528z m347.136 86.528c11.776 0 22.528 5.12 28.16 13.312 5.632 8.192 5.632 18.944 0 26.624-5.632 8.192-16.384 13.312-28.16 13.312h-86.528c-11.776 0-22.528-5.12-28.16-13.312-5.632-8.192-5.632-18.944 0-26.624 5.632-8.192 16.384-13.312 28.16-13.312h86.528z" p-id="4297" fill="#919191"></path></svg>