<?xml version="1.0" standalone="no"?><!DOCTYPE svg PUBLIC "-//W3C//DTD SVG 1.1//EN" "http://www.w3.org/Graphics/SVG/1.1/DTD/svg11.dtd"><svg t="1601177213719" class="icon" viewBox="0 0 1024 1024" version="1.1" xmlns="http://www.w3.org/2000/svg" p-id="25637" xmlns:xlink="http://www.w3.org/1999/xlink" width="128" height="128"><defs><style type="text/css"></style></defs><path d="M512.191832 728.732407c259.207242 0 469.013235 56.056339 469.013234 206.819734 0 97.010742-197.604994 88.307931-446.232348 87.71068h-22.780886c-259.292563 0-469.525165 13.992754-469.525165-87.71068 0-150.763396 210.232602-206.819735 469.525165-206.819734zM772.76422 385.653961c-8.873454 136.002746-69.537163 214.839972-152.384507 248.883319v72.267457H403.577342v-79.093191c-81.908806-43.002123-141.207368-133.528418-152.043221-241.630977zM511.679902 0c169.790129 7.337664 301.44147 143.511053 294.35977 304.598372v4.778013h52.728794v40.78376H165.529875V308.864455h51.704934v-4.863335C210.494397 143.34041 342.145738 7.337664 511.679902 0z" fill="#5E79F2" p-id="25638"></path></svg>