<?xml version="1.0" standalone="no"?><!DOCTYPE svg PUBLIC "-//W3C//DTD SVG 1.1//EN" "http://www.w3.org/Graphics/SVG/1.1/DTD/svg11.dtd"><svg t="1601176807195" class="icon" viewBox="0 0 1024 1024" version="1.1" xmlns="http://www.w3.org/2000/svg" p-id="19384" xmlns:xlink="http://www.w3.org/1999/xlink" width="128" height="128"><defs><style type="text/css"></style></defs><path d="M445.44 207.872h137.216c33.792 0 61.44-24.576 61.44-55.296v-6.144c0-30.72-27.648-55.296-61.44-55.296H445.44c-33.792 0-61.44 24.576-61.44 55.296v6.144c-1.024 30.72 26.624 55.296 61.44 55.296z m366.592-35.84h-45.056c-25.6 0-48.128 13.312-59.392 35.84-17.408 33.792-52.224 54.272-90.112 54.272H407.552c-37.888 0-72.704-21.504-90.112-54.272-11.264-21.504-34.816-35.84-59.392-35.84h-46.08c-45.056 0-82.944 38.912-82.944 87.04v586.752c0 48.128 36.864 87.04 82.944 87.04h600.064c45.056 0 82.944-38.912 82.944-87.04V259.072c0-48.128-37.888-87.04-82.944-87.04zM272.384 681.984c0-16.384 13.312-29.696 29.696-29.696h423.936c16.384 0 29.696 13.312 29.696 29.696v23.552c0 16.384-13.312 29.696-29.696 29.696H302.08c-16.384 0-29.696-13.312-29.696-29.696v-23.552z m483.328-206.848c0 16.384-13.312 29.696-29.696 29.696H302.08c-16.384 0-29.696-13.312-29.696-29.696v-23.552c0-16.384 13.312-29.696 29.696-29.696h423.936c16.384 0 29.696 13.312 29.696 29.696v23.552z m0 0" p-id="19385" fill="#5E79F2"></path></svg>