<?xml version="1.0" standalone="no"?><!DOCTYPE svg PUBLIC "-//W3C//DTD SVG 1.1//EN" "http://www.w3.org/Graphics/SVG/1.1/DTD/svg11.dtd"><svg t="1599730410657" class="icon" viewBox="0 0 1024 1024" version="1.1" xmlns="http://www.w3.org/2000/svg" p-id="2206" xmlns:xlink="http://www.w3.org/1999/xlink" width="128" height="128"><defs><style type="text/css"></style></defs><path d="M512 0a512 512 0 1 0 512 512A512 512 0 0 0 512 0z m0 953.7536A441.9584 441.9584 0 1 1 953.7536 512 441.9584 441.9584 0 0 1 512 953.7536z m27.0848-604.5696c41.472 0 65.7408-31.5392 65.7408-65.6384 0-27.392-10.752-51.2-47.36-51.2-48.2304 0-68.608 37.4784-68.608 64.768-1.024 32.4608 15.4624 52.0704 50.2272 52.0704z m13.8752 354.5088c-6.144 0-8.8576-9.1136-2.6624-35.5328l35.2256-149.504c13.312-54.6816 8.9088-90.2656-17.8688-90.2656-32.0512 0-106.9056 35.84-172.032 96.8704l13.312 24.6272c20.48-15.36 55.296-31.3344 63.2832-31.3344 6.144 0 5.12 9.1648 0 32l-30.72 142.1824c-18.7392 80.2304 0.8192 98.4576 27.5968 98.4576s95.8464-27.392 159.0784-98.4576l-15.36-22.7328c-25.6512 22.7328-52.0704 33.6896-59.8528 33.6896z" fill="#2B52E6" p-id="2207"></path></svg>