<?xml version="1.0" standalone="no"?><!DOCTYPE svg PUBLIC "-//W3C//DTD SVG 1.1//EN" "http://www.w3.org/Graphics/SVG/1.1/DTD/svg11.dtd"><svg t="1606120425903" class="icon" viewBox="0 0 1024 1024" version="1.1" xmlns="http://www.w3.org/2000/svg" p-id="5757" xmlns:xlink="http://www.w3.org/1999/xlink" width="128" height="128"><defs><style type="text/css"></style></defs><path d="M73.142857 0h877.714286c43.885714 0 73.142857 29.257143 73.142857 73.142857v877.714286c0 43.885714-29.257143 73.142857-73.142857 73.142857h-877.714286c-43.885714 0-73.142857-29.257143-73.142857-73.142857v-877.714286c0-36.571429 29.257143-73.142857 73.142857-73.142857z m0 73.142857v877.714286h877.714286v-877.714286h-877.714286z m512-73.142857h292.571429v365.714286l-146.285715-73.142857-146.285714 73.142857v-365.714286z m219.428572 73.142857h-146.285715v175.542857l73.142857-36.571428 73.142858 36.571428v-175.542857z m-585.142858 365.714286h292.571429v73.142857h-292.571429v-73.142857z m0 219.428571h585.142858v73.142857h-585.142858v-73.142857z" fill="#2B52E6" p-id="5758"></path></svg>