<?xml version="1.0" standalone="no"?><!DOCTYPE svg PUBLIC "-//W3C//DTD SVG 1.1//EN" "http://www.w3.org/Graphics/SVG/1.1/DTD/svg11.dtd"><svg t="1604484323881" class="icon" viewBox="0 0 1025 1024" version="1.1" xmlns="http://www.w3.org/2000/svg" p-id="6474" xmlns:xlink="http://www.w3.org/1999/xlink" width="128.125" height="128"><defs><style type="text/css"></style></defs><path d="M299.771904 170.666667l-231.492267 230.434133 444.074667 483.054933 444.552533-483.566933L735.961771 170.666667H299.737771z m0-68.266667h436.224a68.266667 68.266667 0 0 1 49.186133 20.957867l220.945067 229.922133a68.266667 68.266667 0 0 1 1.024 93.525333L562.598571 930.338133a68.266667 68.266667 0 0 1-96.4608 4.061867c-2.048-1.979733-2.048-1.979733-4.061867-4.096L18.001237 447.351467a68.266667 68.266667 0 0 1 2.116267-94.583467l231.492267-230.434133A68.266667 68.266667 0 0 1 299.737771 102.4z m77.858133 214.016l69.5296 248.0128a68.266667 68.266667 0 0 0 131.4816 0l69.5296-248.0128-65.7408-18.432L512.900437 545.9968 443.370837 297.984l-65.7408 18.432z" p-id="6475" fill="#F9A400"></path></svg>