<?xml version="1.0" standalone="no"?><!DOCTYPE svg PUBLIC "-//W3C//DTD SVG 1.1//EN" "http://www.w3.org/Graphics/SVG/1.1/DTD/svg11.dtd"><svg t="1603705806573" class="icon" viewBox="0 0 1024 1024" version="1.1" xmlns="http://www.w3.org/2000/svg" p-id="8118" xmlns:xlink="http://www.w3.org/1999/xlink" width="128" height="128"><defs><style type="text/css"></style></defs><path d="M512 201.6c-110.4 0-200 89.6-200 200S401.6 601.6 512 601.6 712 512 712 401.6 622.4 201.6 512 201.6z m0 336c-75.2 0-136-60.8-136-136s60.8-136 136-136 136 60.8 136 136-60.8 136-136 136z" p-id="8119" fill="#FFAC27"></path><path d="M816 552c22.4-44.8 35.2-96 35.2-150.4 0-187.2-152-340.8-340.8-340.8-187.2 0-340.8 152-340.8 340.8 0 54.4 12.8 105.6 35.2 150.4L68.8 779.2 243.2 832l120 126.4L496 740.8c6.4 0 11.2 1.6 17.6 1.6 6.4 0 11.2 0 17.6-1.6l132.8 217.6L784 832l172.8-52.8L816 552zM350.4 852.8l-73.6-78.4-110.4-33.6 78.4-129.6c44.8 57.6 108.8 99.2 180.8 118.4l-75.2 123.2z m-113.6-451.2c0-152 123.2-276.8 276.8-276.8 152 0 276.8 123.2 276.8 276.8 0 152-123.2 276.8-276.8 276.8-153.6-1.6-276.8-124.8-276.8-276.8z m508.8 372.8L672 852.8l-75.2-123.2c72-19.2 136-60.8 180.8-116.8l78.4 129.6-110.4 32z" p-id="8120" fill="#FFAC27"></path></svg>