<?xml version="1.0" standalone="no"?><!DOCTYPE svg PUBLIC "-//W3C//DTD SVG 1.1//EN" "http://www.w3.org/Graphics/SVG/1.1/DTD/svg11.dtd"><svg t="1599730615333" class="icon" viewBox="0 0 1024 1024" version="1.1" xmlns="http://www.w3.org/2000/svg" p-id="2960" xmlns:xlink="http://www.w3.org/1999/xlink" width="128" height="128"><defs><style type="text/css"></style></defs><path d="M308.3 960.1c10.4 0 20.8-4 28.8-11.9l407.5-407.5c15.9-15.9 15.9-41.6 0-57.5s-41.6-15.9-57.5 0L279.5 890.7c-15.9 15.9-15.9 41.6 0 57.5 8 8 18.4 11.9 28.8 11.9z" p-id="2961" fill="#8a8a8a"></path><path d="M715.7 552.7c10.4 0 20.8-4 28.8-11.9 15.9-15.9 15.9-41.6 0-57.5L337 75.8c-15.9-15.9-41.6-15.9-57.5 0-15.9 15.9-15.9 41.6 0 57.5L687 540.7c7.9 8 18.3 12 28.7 12z" p-id="2962" fill="#8a8a8a"></path></svg>