<?xml version="1.0" encoding="utf-8"?>
<!-- Generator: Adobe Illustrator 21.0.0, SVG Export Plug-In . SVG Version: 6.00 Build 0)  -->
<svg version="1.1" id="图层_1" xmlns="http://www.w3.org/2000/svg" xmlns:xlink="http://www.w3.org/1999/xlink" x="0px" y="0px"
	 viewBox="0 0 128 128" style="enable-background:new 0 0 128 128;" xml:space="preserve">
<style type="text/css">
	.st0{fill:#FFAC27;}
</style>
<path class="st0" d="M92.2,47.4c3.8,0,7.7,0.6,11.5,1.3v-39C103,4.5,99.2,0,94.1,0H9.6C4.5,0,0,4.5,0,9.6v98.6
	c0,5.1,4.5,9.6,9.6,9.6h46.1c-5.1-7.7-8.3-16.6-8.3-25.6C47.4,67.2,67.2,47.4,92.2,47.4z M23.9,19.2h55.9c2.6,0,4.7,2.1,4.7,4.7
	s-2.1,4.7-4.7,4.7H23.9c-2.6,0-4.7-2.1-4.7-4.7S21.3,19.2,23.9,19.2z M33.1,84.7h-9.2c-2.6,0-4.7-2.1-4.7-4.7s2.1-4.7,4.7-4.7H33
	c2.6,0,4.7,2.1,4.7,4.7S35.6,84.7,33.1,84.7z M42,56.8H23.9c-2.6,0-4.7-2.1-4.7-4.7c0-2.6,2.1-4.7,4.7-4.7H42c2.6,0,4.7,2.1,4.7,4.7
	S44.6,56.8,42,56.8z"/>
<path class="st0" d="M117.7,67.9c-13.6-13.6-36.2-13.6-49.8,0c-13.6,13.6-13.6,36.2,0,49.8c13.6,13.6,36.2,13.6,49.8,0
	C131.3,104.1,131.3,81.5,117.7,67.9z M108.5,92.7c-1.2,1.2-3.3,1.2-4.5,0l-8.1-7.8v23.2c0,1.6-1.3,2.9-2.9,2.9h-0.5
	c-1.6,0-2.9-1.3-2.9-2.9V84.9l-8.1,7.8c-1.2,1.2-3.3,1.2-4.5,0c-1.2-1.2-1.2-3.1,0-4.3l13.5-12.9c1.2-1.2,3.3-1.2,4.5,0l13.5,12.9
	C109.8,89.6,109.8,91.5,108.5,92.7z"/>
</svg>
