<?xml version="1.0" standalone="no"?><!DOCTYPE svg PUBLIC "-//W3C//DTD SVG 1.1//EN" "http://www.w3.org/Graphics/SVG/1.1/DTD/svg11.dtd"><svg t="1603683361043" class="icon" viewBox="0 0 1024 1024" version="1.1" xmlns="http://www.w3.org/2000/svg" p-id="8781" xmlns:xlink="http://www.w3.org/1999/xlink" width="128" height="128"><defs><style type="text/css"></style></defs><path d="M737.28 378.88c30.72 0 61.44 5.12 92.16 10.24V76.8c-5.12-40.96-35.84-76.8-76.8-76.8H76.8C35.84 0 0 35.84 0 76.8v788.48c0 40.96 35.84 76.8 76.8 76.8h368.64c-40.96-61.44-66.56-133.12-66.56-204.8 0-199.68 158.72-358.4 358.4-358.4zM190.976 153.6h446.976c20.992 0 37.376 16.896 37.376 37.376 0 20.992-16.896 37.376-37.376 37.376H190.976c-20.992 0-37.376-16.896-37.376-37.376s16.896-37.376 37.376-37.376z m73.728 523.776H190.976c-20.992 0-37.376-16.896-37.376-37.376s16.896-37.376 37.376-37.376h73.216c20.992 0 37.376 16.896 37.376 37.376s-16.384 37.376-36.864 37.376z m71.68-223.232H190.976c-20.992 0-37.376-16.896-37.376-37.376 0-20.992 16.896-37.376 37.376-37.376h144.896c20.992 0 37.376 16.896 37.376 37.376 0.512 20.48-16.384 37.376-36.864 37.376z" p-id="8782" fill="#FFAC27"></path><path d="M742.4 460.8c-153.6 0-281.6 128-281.6 281.6s128 281.6 281.6 281.6 281.6-128 281.6-281.6-128-281.6-281.6-281.6z m167.424 220.672l-175.104 175.104c-14.848 14.848-38.4 14.848-53.248 0l-0.512-0.512-0.512-0.512-105.984-105.984c-14.848-14.848-14.848-38.4 0-53.248s38.4-14.848 53.248 0l80.384 80.384 148.48-148.48c14.848-14.848 38.4-14.848 53.248 0 14.848 14.848 14.848 38.4 0 53.248z" p-id="8783" fill="#FFAC27"></path></svg>