<?xml version="1.0" standalone="no"?><!DOCTYPE svg PUBLIC "-//W3C//DTD SVG 1.1//EN" "http://www.w3.org/Graphics/SVG/1.1/DTD/svg11.dtd"><svg t="1599730398145" class="icon" viewBox="0 0 1024 1024" version="1.1" xmlns="http://www.w3.org/2000/svg" p-id="2004" xmlns:xlink="http://www.w3.org/1999/xlink" width="128" height="128"><defs><style type="text/css"></style></defs><path d="M823.0912 274.1248l-204.970667-204.970667c-19.1488-19.2512-50.346667-19.2512-69.597866 0L100.2496 517.393067c-8.635733 8.772267-13.789867 20.343467-14.336 32.597333l-9.728 214.698667c-0.648533 13.824 4.539733 27.306667 14.336 37.102933 9.181867 9.3184 21.777067 14.4384 34.816 14.4384 0.750933 0 1.536 0 2.286933-0.1024l214.698667-9.728c12.253867-0.546133 23.9616-5.700267 32.597333-14.336l448.170667-448.341333c19.2512-19.1488 19.2512-50.346667 0-69.597867zM318.805333 726.084267l-155.477333-0.375467 6.4512-152.064L583.304533 160.017067l149.026134 152.541866L318.805333 726.084267z" fill="#2B52E6" p-id="2005"></path><path d="M903.406933 947.370667H125.3376c-27.2384 0-49.2544-18.6368-49.2544-41.6768 0-23.074133 21.981867-41.6768 49.2544-41.6768h778.103467c27.2384 0 49.2544 18.602667 49.2544 41.6768-0.034133 23.04-22.152533 41.6768-49.288534 41.6768z" fill="#2B52E6" p-id="2006"></path></svg>