<?xml version="1.0" standalone="no"?><!DOCTYPE svg PUBLIC "-//W3C//DTD SVG 1.1//EN" "http://www.w3.org/Graphics/SVG/1.1/DTD/svg11.dtd"><svg t="1603611370443" class="icon" viewBox="0 0 1024 1024" version="1.1" xmlns="http://www.w3.org/2000/svg" p-id="5197" xmlns:xlink="http://www.w3.org/1999/xlink" width="128" height="128"><defs><style type="text/css"></style></defs><path d="M768.512 165.888c35.328 0 64 28.672 64 64v627.2c0 35.328-28.672 64-64 64H243.712c-35.328 0-64-28.672-64-64V229.888c0-35.328 28.672-64 64-64h524.8m0-46.08H243.712c-60.928 0-110.08 49.152-110.08 110.08v627.2c0 60.928 49.152 110.08 110.08 110.08h524.8c60.928 0 110.08-49.152 110.08-110.08V229.888c0-60.416-49.664-110.08-110.08-110.08z" fill="#FFAC27" p-id="5198"></path><path d="M408.064 415.232c48.128 10.752 85.504 48.64 94.208 95.744 2.048 11.264-6.656 21.504-17.92 21.504h-209.92c-11.264 0-19.968-10.24-17.92-21.504 8.704-47.104 46.08-84.48 93.696-95.744-29.184-10.752-48.128-38.4-48.64-69.12C301.568 304.64 336.384 271.36 378.88 271.36c43.008 0 77.312 33.28 77.312 74.752 0.512 31.232-19.456 57.856-48.128 69.12zM593.408 306.688h142.848c9.728 0 17.92 8.192 17.92 17.92s-8.192 17.92-17.92 17.92h-142.848c-9.728 0-17.92-8.192-17.92-17.92s8.192-17.92 17.92-17.92zM593.408 492.032h142.848c9.728 0 17.92 8.192 17.92 17.92s-8.192 17.92-17.92 17.92h-142.848c-9.728 0-17.92-8.192-17.92-17.92 0-10.24 8.192-17.92 17.92-17.92zM287.744 669.184h446.976c13.824 0 24.576 11.264 24.576 25.088s-11.264 25.088-24.576 25.088H287.744c-13.824 0-24.576-11.264-24.576-25.088-0.512-13.824 10.752-25.088 24.576-25.088z" fill="#FFAC27" p-id="5199"></path></svg>