<?xml version="1.0" standalone="no"?><!DOCTYPE svg PUBLIC "-//W3C//DTD SVG 1.1//EN" "http://www.w3.org/Graphics/SVG/1.1/DTD/svg11.dtd"><svg t="1606119664962" class="icon" viewBox="0 0 1024 1024" version="1.1" xmlns="http://www.w3.org/2000/svg" p-id="3440" xmlns:xlink="http://www.w3.org/1999/xlink" width="128" height="128"><defs><style type="text/css"></style></defs><path d="M134.838857 860.525714h753.664c15.067429 0 25.124571 10.24 25.124572 25.6 0 15.36-10.057143 25.6-25.124572 25.6H134.838857c-15.067429 0-25.124571-10.24-25.124571-25.6 0-12.8 10.057143-25.6 25.124571-25.6z" p-id="3441" fill="#2B52E6"></path><path d="M561.92 914.285714H210.212571c-30.171429 0-50.249143-20.48-50.249142-51.2V269.494857c0-23.04 15.067429-43.52 35.181714-51.163428L549.302857 110.811429c27.648-5.12 50.249143 7.68 60.306286 33.28l2.486857 5.12V863.085714c0 30.72-20.114286 51.2-50.212571 51.2zM210.212571 269.458286v593.664h351.707429V162.011429L210.212571 269.458286z" p-id="3442" fill="#2B52E6"></path><path d="M310.674286 348.781714h150.747428c15.067429 0 25.124571 10.24 25.124572 25.6 0 15.36-10.057143 25.6-25.124572 25.6H310.674286c-15.067429 0-25.124571-10.24-25.124572-25.6 0-12.8 10.057143-25.6 25.124572-25.6z" p-id="3443" fill="#2B52E6"></path><path d="M461.421714 399.981714H310.674286c-15.067429 0-25.124571-10.24-25.124572-25.6 0-15.36 10.057143-25.6 25.124572-25.6h150.747428c15.067429 0 25.124571 10.24 25.124572 25.6 0 15.36-10.057143 25.6-25.124572 25.6z m-150.747428-23.990857h150.747428-150.747428z" p-id="3444" fill="#2B52E6"></path><path d="M310.674286 502.308571h150.747428c15.067429 0 25.124571 10.24 25.124572 25.6 0 15.36-10.057143 25.6-25.124572 25.6H310.674286c-15.067429 0-25.124571-10.24-25.124572-25.6 0-12.8 10.057143-25.6 25.124572-25.6z" p-id="3445" fill="#2B52E6"></path><path d="M461.421714 553.508571H310.674286c-15.067429 0-25.124571-10.24-25.124572-25.6 0-15.36 10.057143-25.6 25.124572-25.6h150.747428c15.067429 0 25.124571 10.24 25.124572 25.6 0 15.36-10.057143 25.6-25.124572 25.6z m-150.747428-23.990857h150.747428-150.747428z" p-id="3446" fill="#2B52E6"></path><path d="M310.674286 655.835429h150.747428c15.067429 0 25.124571 10.24 25.124572 25.6 0 15.36-10.057143 25.6-25.124572 25.6H310.674286c-15.067429 0-25.124571-10.24-25.124572-25.6 0-12.8 10.057143-25.6 25.124572-25.6z" p-id="3447" fill="#2B52E6"></path><path d="M461.421714 707.035429H310.674286c-15.067429 0-25.124571-10.24-25.124572-25.6 0-15.36 10.057143-25.6 25.124572-25.6h150.747428c15.067429 0 25.124571 10.24 25.124572 25.6 0 15.36-10.057143 25.6-25.124572 25.6z m-150.747428-23.990858h150.747428-150.747428z" p-id="3448" fill="#2B52E6"></path><path d="M687.542857 655.835429h50.212572c15.067429 0 25.124571 10.24 25.124571 25.6 0 15.36-10.057143 25.6-25.124571 25.6H687.542857c-15.067429 0-25.124571-10.24-25.124571-25.6 0-12.8 10.057143-25.6 25.124571-25.6z" p-id="3449" fill="#2B52E6"></path><path d="M737.755429 707.035429H687.542857c-15.067429 0-25.124571-10.24-25.124571-25.6 0-15.36 10.057143-25.6 25.124571-25.6h50.249143c15.067429 0 25.124571 10.24 25.124571 25.6 0 15.36-10.057143 25.6-25.124571 25.6z m-50.249143-23.990858h50.249143H687.542857z" p-id="3450" fill="#2B52E6"></path><path d="M863.378286 914.285714h-251.245715c-30.134857 0-50.212571-20.48-50.212571-51.2V351.378286l276.333714 184.246857c17.554286 7.68 25.124571 28.16 25.124572 43.52V914.285714z m-251.245715-470.820571v419.657143h200.996572v-286.610286l-200.996572-133.046857z" p-id="3451" fill="#2B52E6"></path></svg>