<?xml version="1.0" standalone="no"?><!DOCTYPE svg PUBLIC "-//W3C//DTD SVG 1.1//EN" "http://www.w3.org/Graphics/SVG/1.1/DTD/svg11.dtd"><svg t="1600479127447" class="icon" viewBox="0 0 1024 1024" version="1.1" xmlns="http://www.w3.org/2000/svg" p-id="4678" xmlns:xlink="http://www.w3.org/1999/xlink" width="128" height="128"><defs><style type="text/css"></style></defs><path d="M871.1168 103.168H650.24C627.5072 41.8816 568.0128 1.024 501.248 0.9216c-66.6624 0.1536-126.1056 40.96-148.9408 102.2464H131.584C73.472 103.168 25.856 149.1456 25.856 205.312v715.4688c0 56.2688 47.616 102.2464 105.728 102.2464h739.5328c58.0608 0 105.6768-45.9776 105.6768-102.2464V205.3632c0-56.2176-47.616-102.1952-105.6768-102.1952z m-369.7664 0c29.0304 0 52.8384 22.9888 52.8384 51.0976 0 28.1088-23.808 51.0976-52.8384 51.0976-29.0816 0-52.8896-23.04-52.8896-51.0976 0-28.16 23.808-51.0976 52.8896-51.0976z m105.6256 715.4688H237.2096v-102.1952h369.7664v102.1952z m158.5152-204.4416H237.2096V512H765.44v102.1952z m0-204.3904H237.2096V307.5584H765.44v102.2464z" fill="#5776FF" p-id="4679"></path></svg>