<?xml version="1.0" standalone="no"?><!DOCTYPE svg PUBLIC "-//W3C//DTD SVG 1.1//EN" "http://www.w3.org/Graphics/SVG/1.1/DTD/svg11.dtd"><svg t="1601195575337" class="icon" viewBox="0 0 1024 1024" version="1.1" xmlns="http://www.w3.org/2000/svg" p-id="4053" xmlns:xlink="http://www.w3.org/1999/xlink" width="128" height="128"><defs><style type="text/css"></style></defs><path d="M807.734747 89.453305h-42.527819v-42.314754a42.570432 42.570432 0 1 0-84.842573 0v42.314754h-127.413005v-42.314754a42.570432 42.570432 0 1 0-85.140865 0v42.314754h-127.413005v-42.314754a42.570432 42.570432 0 1 0-84.885186 0v42.314754h-40.269328a213.576583 213.576583 0 0 0-213.065226 212.298191L0.64367 811.701809A211.786835 211.786835 0 0 0 212.430505 1024h595.304242a212.55387 212.55387 0 0 0 212.340805-212.298191V302.007174a212.809548 212.809548 0 0 0-212.298192-212.553869z m127.455619 722.291117a127.413005 127.413005 0 0 1-127.413006 127.413005H212.430505a127.413005 127.413005 0 0 1-127.413005-127.413005v-382.324242H935.147753v382.281629z m0-467.465107H87.020313v-42.272141a127.413005 127.413005 0 0 1 127.413005-127.413005h41.078976v42.272141a42.570432 42.570432 0 1 0 84.842573 0v-42.314754h127.413005v42.314754a42.570432 42.570432 0 1 0 85.140865 0v-42.314754h127.413005v42.314754a42.570432 42.570432 0 1 0 84.885186 0v-42.314754h42.570432a127.413005 127.413005 0 0 1 127.413006 127.413005v42.314754z" p-id="4054" fill="#98AAFD"></path><path d="M437.725675 841.786619a42.314754 42.314754 0 0 0 60.127007 0l254.868624-254.826011a42.570432 42.570432 0 0 0-60.127007-60.16962l-224.783814 224.996879-97.370808-97.583874a42.570432 42.570432 0 0 0-60.127007 60.127007l127.413005 127.413005z" p-id="4055" fill="#98AAFD"></path></svg>