<?xml version="1.0" standalone="no"?><!DOCTYPE svg PUBLIC "-//W3C//DTD SVG 1.1//EN" "http://www.w3.org/Graphics/SVG/1.1/DTD/svg11.dtd"><svg t="1604123736340" class="icon" viewBox="0 0 1024 1024" version="1.1" xmlns="http://www.w3.org/2000/svg" p-id="8031" xmlns:xlink="http://www.w3.org/1999/xlink" width="128" height="128"><defs><style type="text/css"></style></defs><path d="M511.169371 180.744971a321.287476 321.287476 0 1 0 321.287475 321.287475 321.287476 321.287476 0 0 0-321.287475-321.287475z m0 598.053212a276.765737 276.765737 0 1 1 276.765736-276.765737 277.097988 277.097988 0 0 1-276.765736 276.765737zM607.85464 979.478261H414.484101a22.26087 22.26087 0 1 0 0 44.521739h193.370539a22.26087 22.26087 0 0 0 0-44.521739z" fill="#707070" p-id="8032"></path><path d="M684.604802 871.828683H337.733939a22.26087 22.26087 0 1 0 0 44.521739h346.870863a22.26087 22.26087 0 0 0 0-44.521739zM511.169371 140.874757a22.26087 22.26087 0 0 0 22.260869-22.26087V22.26087a22.26087 22.26087 0 0 0-44.521739 0v96.353017a22.26087 22.26087 0 0 0 22.26087 22.26087zM240.051914 253.17586a22.26087 22.26087 0 0 0 15.615834-6.645036 21.596366 21.596366 0 0 0 0-31.231668l-68.111616-66.450357a22.094744 22.094744 0 0 0-31.231667 31.231668l68.111615 66.450357a22.26087 22.26087 0 0 0 15.615834 6.645036zM127.750811 479.771577H32.394549a22.925373 22.925373 0 0 0 0 45.850746h96.353018a22.26087 22.26087 0 0 0 0-44.521739zM866.014276 147.187541a21.596366 21.596366 0 0 0-31.231667 0l-66.450357 68.111615a21.596366 21.596366 0 0 0 0 31.231668 21.596366 21.596366 0 0 0 31.231668 0l68.111615-66.450357a21.596366 21.596366 0 0 0-1.661259-32.892926zM990.940947 479.771577H896.249189a22.925373 22.925373 0 0 0 0 45.850746h96.353017a22.26087 22.26087 0 0 0 0-44.521739z" fill="#707070" p-id="8033"></path></svg>