<?xml version="1.0" standalone="no"?><!DOCTYPE svg PUBLIC "-//W3C//DTD SVG 1.1//EN" "http://www.w3.org/Graphics/SVG/1.1/DTD/svg11.dtd"><svg t="1603616985121" class="icon" viewBox="0 0 1042 1024" version="1.1" xmlns="http://www.w3.org/2000/svg" p-id="11676" xmlns:xlink="http://www.w3.org/1999/xlink" width="130.25" height="128"><defs><style type="text/css"></style></defs><path d="M473.68025 0.781937C579.068023 0.781937 686.367199 90.357201 721.119969 207.126507c31.190611 103.215726-6.77679 206.952743-103.215726 282.887544-85.578695 67.420373-178.542354 73.15458-274.373116 17.376385-179.150527-105.474656-173.763848-355.433951 11.294651-468.29357A275.676345 275.676345 0 0 1 473.68025 0.781937c1.650757 3.388395-1.216347-2.867103 0 0zM78.193732 995.666849c-1.129465 0-2.25893-0.608173-3.388395-0.608174-82.1903-17.376385-86.186869-23.805647-60.817347-101.478087 17.376385-52.737328 32.841367-105.474656 51.607863-156.995636 29.452972-82.798474 92.963659-125.283734 176.891597-129.280303 98.089692-5.126034 196.700676-2.25893 295.398541-1.129465 33.970832 0.608173 39.705039 11.902824 25.543286 43.440962a176.457188 176.457188 0 0 1-12.510997 22.676182c-57.255188 92.442367-75.934802 191.140233-49.870224 298.178763 10.773359 44.222899 2.25893 52.129154-42.485261 53.258619-22.676182 0.608173-45.352364 0-68.028547 0 0.608173 0-215.988463-17.376385-312.774926-27.802215z m657.348636-305.563727l49.348933-77.67244h51.607863l47.611294 77.67244z m304.955554 0h-112.946502l-72.546406-77.67244h79.323197l96.960227 44.222899a28.236625 28.236625 0 0 1 9.209484 33.449541zM1018.429913 747.184546l-178.021062 237.708944 86.881924-270.376547h109.384342a103.128844 103.128844 0 0 1-18.245204 32.667603zM767.254271 612.430682L695.055392 690.103122H582.108891a27.194042 27.194042 0 0 1 8.688192-33.449541v0.608174l96.960227-44.222899c0-0.608173 79.323197-0.608173 79.323197-0.608174z m-163.251135 135.535802a96.004526 96.004526 0 0 1-18.158323-32.841368H695.055392l86.881924 270.376548zM811.47717 1023.469065l-75.934802-308.430831h148.56809l-72.633288 308.430831z" fill="#FFAC27" p-id="11677"></path></svg>