<?xml version="1.0" standalone="no"?><!DOCTYPE svg PUBLIC "-//W3C//DTD SVG 1.1//EN" "http://www.w3.org/Graphics/SVG/1.1/DTD/svg11.dtd"><svg t="1601176059984" class="icon" viewBox="0 0 1024 1024" version="1.1" xmlns="http://www.w3.org/2000/svg" p-id="7995" xmlns:xlink="http://www.w3.org/1999/xlink" width="128" height="128"><defs><style type="text/css"></style></defs><path d="M918.187 361.813l-64.854-20.48V102.4c0-37.547-30.72-68.267-68.266-68.267H238.933c-37.546 0-68.266 30.72-68.266 68.267v238.933l-64.854 20.48c-44.373 13.654-71.68 51.2-71.68 98.987v426.667c0 58.026 44.374 102.4 102.4 102.4h750.934c58.026 0 102.4-44.374 102.4-102.4V460.8c0-44.373-30.72-85.333-71.68-98.987z m-20.48 64.854c3.413 0 3.413 3.413 6.826 3.413l-51.2 23.893v-40.96l44.374 13.654zM785.067 102.4v382.293L525.653 604.16c-10.24 3.413-20.48 3.413-27.306 0L238.933 484.693V102.4h546.134z m-614.4 310.613v40.96l-51.2-23.893c3.413 0 3.413-3.413 6.826-3.413l44.374-13.654z m716.8 508.587H136.533c-20.48 0-34.133-13.653-34.133-34.133v-389.12l365.227 170.666c13.653 6.827 27.306 10.24 44.373 10.24s30.72-3.413 44.373-10.24L921.6 498.347v389.12c0 20.48-13.653 34.133-34.133 34.133z" p-id="7996" fill="#ffffff"></path><path d="M341.333 273.067h341.334c20.48 0 34.133-13.654 34.133-34.134S703.147 204.8 682.667 204.8H341.333c-20.48 0-34.133 13.653-34.133 34.133s13.653 34.134 34.133 34.134z m0 136.533h341.334c20.48 0 34.133-13.653 34.133-34.133s-13.653-34.134-34.133-34.134H341.333c-20.48 0-34.133 13.654-34.133 34.134s13.653 34.133 34.133 34.133z" p-id="7997" fill="#ffffff"></path></svg>