<?xml version="1.0" standalone="no"?><!DOCTYPE svg PUBLIC "-//W3C//DTD SVG 1.1//EN" "http://www.w3.org/Graphics/SVG/1.1/DTD/svg11.dtd"><svg t="1601178948360" class="icon" viewBox="0 0 1024 1024" version="1.1" xmlns="http://www.w3.org/2000/svg" p-id="45031" xmlns:xlink="http://www.w3.org/1999/xlink" width="128" height="128"><defs><style type="text/css"></style></defs><path d="M329.142857 0c21.942857 0 43.885714 7.314286 58.514286 29.257143L482.742857 146.285714H950.857143c43.885714 0 73.142857 29.257143 73.142857 73.142857v731.428572c0 43.885714-29.257143 73.142857-73.142857 73.142857H73.142857c-43.885714 0-73.142857-29.257143-73.142857-73.142857V73.142857c0-43.885714 29.257143-73.142857 73.142857-73.142857h256z m-146.285714 768c-21.942857 0-36.571429 14.628571-36.571429 36.571429s14.628571 36.571429 36.571429 36.571428 36.571429-14.628571 36.571428-36.571428-14.628571-36.571429-36.571428-36.571429z m658.285714 0h-512c-21.942857 0-36.571429 14.628571-36.571428 36.571429s14.628571 36.571429 36.571428 36.571428h512c21.942857 0 36.571429-14.628571 36.571429-36.571428s-14.628571-36.571429-36.571429-36.571429z m-658.285714-219.428571c-21.942857 0-36.571429 14.628571-36.571429 36.571428s14.628571 36.571429 36.571429 36.571429 36.571429-14.628571 36.571428-36.571429-14.628571-36.571429-36.571428-36.571428z m658.285714 0h-512c-21.942857 0-36.571429 14.628571-36.571428 36.571428s14.628571 36.571429 36.571428 36.571429h512c21.942857 0 36.571429-14.628571 36.571429-36.571429s-14.628571-36.571429-36.571429-36.571428z m-658.285714-219.428572c-21.942857 0-36.571429 14.628571-36.571429 36.571429s14.628571 36.571429 36.571429 36.571428 36.571429-14.628571 36.571428-36.571428-14.628571-36.571429-36.571428-36.571429z m658.285714 0h-512c-21.942857 0-36.571429 14.628571-36.571428 36.571429s14.628571 36.571429 36.571428 36.571428h512c21.942857 0 36.571429-14.628571 36.571429-36.571428s-14.628571-36.571429-36.571429-36.571429z" p-id="45032" fill="#5E79F2"></path></svg>