<?xml version="1.0" encoding="utf-8"?>
<!-- Generator: Adobe Illustrator 21.0.0, SVG Export Plug-In . SVG Version: 6.00 Build 0)  -->
<svg version="1.1" id="图层_1" xmlns="http://www.w3.org/2000/svg" xmlns:xlink="http://www.w3.org/1999/xlink" x="0px" y="0px"
	 viewBox="0 0 30 30" style="enable-background:new 0 0 30 30;" xml:space="preserve">
<style type="text/css">
	.st0{fill:#4EA4FF;}
	.st1{fill:#FFFFFF;}
</style>
<circle class="st0" cx="15.1" cy="15" r="14.9"/>
<circle class="st1" cx="15" cy="15.4" r="2.1"/>
<path class="st1" d="M13.1,9l-1.2,1.3h-2c-0.7,0-1.3,0.6-1.3,1.3v7.7c0,0.7,0.6,1.3,1.3,1.3h10.3c0.7,0,1.3-0.6,1.3-1.3v-7.7
	c0-0.7-0.6-1.3-1.3-1.3h-2L16.9,9H13.1z M15,18.6c-1.8,0-3.2-1.4-3.2-3.2s1.4-3.2,3.2-3.2s3.2,1.4,3.2,3.2S16.8,18.6,15,18.6z"/>
</svg>
