<?xml version="1.0" standalone="no"?><!DOCTYPE svg PUBLIC "-//W3C//DTD SVG 1.1//EN" "http://www.w3.org/Graphics/SVG/1.1/DTD/svg11.dtd"><svg t="1602750175236" class="icon" viewBox="0 0 1024 1024" version="1.1" xmlns="http://www.w3.org/2000/svg" p-id="4462" xmlns:xlink="http://www.w3.org/1999/xlink" width="128" height="128"><defs><style type="text/css"></style></defs><path d="M513.748293 854.41561a115.637073 115.637073 0 0 1-95.157073-49.95122L237.268293 540.222439A344.163902 344.163902 0 0 1 274.481951 99.902439a336.171707 336.171707 0 0 1 239.266342-99.902439h2.497561a335.921951 335.921951 0 0 1 239.516097 102.4 343.164878 343.164878 0 0 1 37.962927 433.576585l-1.998049 2.997074-182.821463 265.240975a115.637073 115.637073 0 0 1-95.157073 50.200976z m0-777.490732a260.745366 260.745366 0 0 0-185.568781 77.174634 266.739512 266.739512 0 0 0-29.221463 341.916098l182.072195 264.491707a39.461463 39.461463 0 0 0 64.936585 0l182.072195-264.491707 1.498537-2.247805a265.990244 265.990244 0 0 0-28.222439-337.420488 260.49561 260.49561 0 0 0-185.568781-79.422439zM761.756098 514.247805z" fill="#5E79F2" p-id="4463"></path><path d="M513.748293 489.521951a158.09561 158.09561 0 1 1 156.846829-158.09561 157.596098 157.596098 0 0 1-156.846829 158.09561z m0-239.266341a81.170732 81.170732 0 1 0 80.671219 81.170731A80.920976 80.920976 0 0 0 513.748293 249.756098zM973.299512 1024H50.700488a37.962927 37.962927 0 0 1-30.220488-14.985366 38.712195 38.712195 0 0 1-6.743415-33.217561l89.412683-339.16878a38.212683 38.212683 0 1 1 74.92683 19.730731L100.152195 947.075122h821.198049l-90.411707-288.967805a38.212683 38.212683 0 1 1 72.679024-23.227317L1009.763902 974.04878a38.712195 38.712195 0 0 1-5.74439 34.216586 37.962927 37.962927 0 0 1-30.72 15.734634z" fill="#5E79F2" p-id="4464"></path><path d="M337.170732 927.843902h-3.496586a335.672195 335.672195 0 0 1-61.44-12.737561c-49.95122-15.235122-80.171707-39.461463-92.409756-71.929756a93.159024 93.159024 0 0 1 32.468293-104.897561 206.298537 206.298537 0 0 1 46.454634-30.470244 37.962927 37.962927 0 0 1 49.95122 18.981464 38.462439 38.462439 0 0 1-18.731708 49.951219c-18.232195 8.491707-43.457561 28.472195-39.960975 37.962927 4.995122 13.237073 44.206829 30.969756 89.662439 35.465366a38.462439 38.462439 0 0 1-2.497561 77.674146zM674.840976 927.843902a38.462439 38.462439 0 0 1-3.496586-76.675122c45.205854-4.49561 84.667317-22.478049 89.412683-35.465365 3.496585-9.240976-21.72878-29.47122-39.960975-37.962927a38.462439 38.462439 0 0 1 31.719024-69.931708 206.298537 206.298537 0 0 1 46.454634 30.470244 93.159024 93.159024 0 0 1 33.217561 104.647805c-12.238049 32.468293-43.457561 56.694634-92.409756 71.929756a335.672195 335.672195 0 0 1-61.44 12.737561z" fill="#5E79F2" p-id="4465"></path></svg>