<?xml version="1.0" encoding="utf-8"?>
<!-- Generator: Adobe Illustrator 21.0.0, SVG Export Plug-In . SVG Version: 6.00 Build 0)  -->
<svg version="1.1" id="图层_1" xmlns="http://www.w3.org/2000/svg" xmlns:xlink="http://www.w3.org/1999/xlink" x="0px" y="0px"
	 viewBox="0 0 128 128" style="enable-background:new 0 0 128 128;" xml:space="preserve">
<style type="text/css">
	.st0{fill:#5C7CF4;}
</style>
<path class="st0" d="M114.3,93.6c0-2.5,2-4.6,4.6-4.6c2.5,0,4.6,2,4.6,4.6l0,0v12.8c0,12-9.8,21.6-21.8,21.6H26.4
	c-12,0-21.8-9.7-21.8-21.6V21.6C4.6,9.7,14.3,0,26.4,0h57.4c2.5,0,4.6,2,4.6,4.6s-2,4.6-4.6,4.6H26.4c-7,0-12.6,5.6-12.6,12.5v84.7
	c0,6.9,5.7,12.5,12.7,12.5h75.3c7,0,12.7-5.6,12.7-12.5C114.3,106.4,114.3,93.6,114.3,93.6z M114.3,36.6c0-2.5,2-4.6,4.6-4.6
	c2.5,0,4.6,2,4.6,4.6v18.6c0,2.5-2,4.6-4.6,4.6c-2.5,0-4.6-2-4.6-4.6V36.6z"/>
<path class="st0" d="M89.1,32.5h18.1L89.1,15.6C89.1,15.6,89.1,32.5,89.1,32.5z M80,37V5c0-4,4.8-6.1,7.7-3.3l34.3,32
	c3,2.8,1,7.9-3.1,7.9H84.5C82,41.6,80,39.6,80,37z"/>
<path class="st0" d="M114.3,73.1c0,2.5,2,4.6,4.6,4.6c2.5,0,4.6-2,4.6-4.6l0,0c0-2.5-2-4.6-4.6-4.6
	C116.3,68.6,114.3,70.6,114.3,73.1z"/>
<path class="st0" d="M36.6,89.1c-2.5,0-4.6-2-4.6-4.6c0-2.5,2-4.6,4.6-4.6l0,0h54.9c2.5,0,4.6,2,4.6,4.6c0,2.5-2,4.6-4.6,4.6H36.6z
	 M36.6,66.3c-2.5,0-4.6-2-4.6-4.6c0-2.5,2-4.6,4.6-4.6h45.7c2.5,0,4.6,2,4.6,4.6c0,2.5-2,4.6-4.6,4.6H36.6z"/>
</svg>
