<?xml version="1.0" encoding="utf-8"?>
<!-- Generator: Adobe Illustrator 21.0.0, SVG Export Plug-In . SVG Version: 6.00 Build 0)  -->
<svg version="1.1" id="图层_1" xmlns="http://www.w3.org/2000/svg" xmlns:xlink="http://www.w3.org/1999/xlink" x="0px" y="0px"
	 viewBox="0 0 128 128" style="enable-background:new 0 0 128 128;" xml:space="preserve">
<style type="text/css">
	.st0{fill:#FFAC27;}
	.st1{fill:#FFFFFF;}
</style>
<path class="st0" d="M117.7,67.9c-13.6-13.6-36.2-13.6-49.8,0c-13.6,13.6-13.6,36.2,0,49.8c13.6,13.6,36.2,13.6,49.8,0
	C131.3,104.1,131.3,81.5,117.7,67.9z"/>
<path class="st0" d="M92.2,47.4c3.8,0,7.7,0.6,11.5,1.3v-39C103,4.5,99.2,0,94.1,0H9.6C4.5,0,0,4.5,0,9.6v98.6
	c0,5.1,4.5,9.6,9.6,9.6h46.1c-5.1-7.7-8.3-16.6-8.3-25.6C47.4,67.2,67.2,47.4,92.2,47.4z M23.9,19.2h55.9c2.6,0,4.7,2.1,4.7,4.7
	c0,2.6-2.1,4.7-4.7,4.7H23.9c-2.6,0-4.7-2.1-4.7-4.7S21.3,19.2,23.9,19.2z M33.1,84.7h-9.2c-2.6,0-4.7-2.1-4.7-4.7s2.1-4.7,4.7-4.7
	H33c2.6,0,4.7,2.1,4.7,4.7S35.6,84.7,33.1,84.7z M42,56.8H23.9c-2.6,0-4.7-2.1-4.7-4.7c0-2.6,2.1-4.7,4.7-4.7H42
	c2.6,0,4.7,2.1,4.7,4.7C46.7,54.7,44.6,56.8,42,56.8z"/>
<path class="st1" d="M92,100.8L92,100.8c-2.5,0-4.6-2.1-4.6-4.6v-19c0-2.5,2.1-4.6,4.6-4.6h0c2.5,0,4.6,2.1,4.6,4.6v19
	C96.6,98.7,94.5,100.8,92,100.8z"/>
<path class="st1" d="M87.4,96.2L87.4,96.2c0-2.5,2.1-4.6,4.6-4.6h21.4c2.5,0,4.6,2.1,4.6,4.6v0c0,2.5-2.1,4.6-4.6,4.6H92
	C89.4,100.9,87.4,98.8,87.4,96.2z"/>
</svg>
