<?xml version="1.0" standalone="no"?><!DOCTYPE svg PUBLIC "-//W3C//DTD SVG 1.1//EN" "http://www.w3.org/Graphics/SVG/1.1/DTD/svg11.dtd"><svg t="1599529658852" class="icon" viewBox="0 0 1024 1024" version="1.1" xmlns="http://www.w3.org/2000/svg" p-id="11797" xmlns:xlink="http://www.w3.org/1999/xlink" width="128" height="128"><defs><style type="text/css"></style></defs><path d="M663.68 375.68a40.32 40.32 0 0 0-28.8 11.52L472.32 549.76 387.84 465.92a40.32 40.32 0 0 0-56.96 0 40.96 40.96 0 0 0 0 55.04l106.24 108.16 5.76 7.04a44.8 44.8 0 0 0 21.76 11.52h8.96a39.68 39.68 0 0 0 28.16-7.68 48.64 48.64 0 0 0 10.24-12.16l183.04-183.68a39.68 39.68 0 0 0 0-56.96 38.4 38.4 0 0 0-28.16-11.52z" p-id="11798" fill="#E3803A"></path><path d="M512 137.6A374.4 374.4 0 1 1 137.6 512 374.4 374.4 0 0 1 512 137.6M512 57.6A454.4 454.4 0 1 0 966.4 512 454.4 454.4 0 0 0 512 57.6z" p-id="11799" fill="#E3803A"></path></svg>