<?xml version="1.0" standalone="no"?><!DOCTYPE svg PUBLIC "-//W3C//DTD SVG 1.1//EN" "http://www.w3.org/Graphics/SVG/1.1/DTD/svg11.dtd"><svg t="1603603131785" class="icon" viewBox="0 0 1024 1024" version="1.1" xmlns="http://www.w3.org/2000/svg" p-id="4018" xmlns:xlink="http://www.w3.org/1999/xlink" width="128" height="128"><defs><style type="text/css"></style></defs><path d="M490.64011852 98.39502222l-188.35531852 118.45025186C277.0413037 232.37973333 249.856 240.14696297 220.72888889 240.14696297h-93.20675556C49.84983703 240.14696297-12.288 302.2848-12.288 378.01528889v273.79484444C-12.288 735.30785185 55.67525925 803.27111111 139.17297778 803.27111111h108.74121481c29.12711111 0 56.31241482 7.76722963 81.55591111 23.30168889L492.58192592 925.60497778c11.65084445 7.76722963 25.2434963 11.65084445 40.77795556 11.65084444 42.71976297 0 77.6722963-34.95253333 77.6722963-77.6722963V164.41647408c0-13.59265185-3.88361482-29.12711111-11.65084445-40.77795556-25.2434963-36.89434075-71.84687408-48.54518518-108.74121481-25.2434963zM531.41807408 859.58352592l-163.11182223-99.03217777c-36.89434075-21.35988148-77.6722963-34.95253333-120.39205926-34.95253333h-108.74121481c-40.77795555 0-73.78868148-33.01072592-73.78868148-73.78868149V378.01528889c0-33.01072592 27.1853037-60.19602963 60.19602962-60.19602964H220.72888889c44.66157037 0 85.43952592-11.65084445 124.27567408-34.95253333l188.35531851-118.45025184v695.16705184zM997.45185185 473.16385185H764.43496297c-21.35988148 0-38.83614815 17.47626667-38.83614815 38.83614815s17.47626667 38.83614815 38.83614815 38.83614815h233.01688888c21.35988148 0 38.83614815-17.47626667 38.83614815-38.83614815s-17.47626667-38.83614815-38.83614815-38.83614815z m-15.53445926 330.10725926l-201.94797037-116.50844444c-19.41807408-11.65084445-42.71976297-3.88361482-52.4288 13.59265185-11.65084445 19.41807408-3.88361482 42.71976297 13.59265186 52.4288l201.94797037 116.50844445c19.41807408 11.65084445 42.71976297 3.88361482 52.4288-13.59265186 11.65084445-17.47626667 5.82542222-40.77795555-13.59265186-52.4288z m-203.88977777-466.03377778l201.94797036-116.50844444c19.41807408-11.65084445 25.2434963-34.95253333 13.59265185-52.4288-11.65084445-19.41807408-34.95253333-25.2434963-52.4288-13.59265186l-201.94797036 116.50844445c-19.41807408 11.65084445-25.2434963 34.95253333-13.59265185 52.4288s34.95253333 25.2434963 52.4288 13.59265185z" p-id="4019" fill="#FFAC27"></path></svg>