<?xml version="1.0" encoding="utf-8"?>
<!-- Generator: Adobe Illustrator 21.0.0, SVG Export Plug-In . SVG Version: 6.00 Build 0)  -->
<svg version="1.1" id="图层_1" xmlns="http://www.w3.org/2000/svg" xmlns:xlink="http://www.w3.org/1999/xlink" x="0px" y="0px"
	 viewBox="0 0 24 24" style="enable-background:new 0 0 24 24;" xml:space="preserve">
<style type="text/css">
	.st0{fill:#3F5DE3;}
	.st1{fill:#FFFFFF;}
</style>
<circle class="st0" cx="12.1" cy="12" r="12"/>
<path class="st1" d="M18,16.4l-2.5-2.9h1c0.3,0,0.5-0.2,0.7-0.4c0.1-0.3,0.1-0.5-0.1-0.8l-2.5-2.9h0.9c0.3,0,0.5-0.2,0.7-0.4
	c0.1-0.3,0.1-0.6-0.1-0.8l-3.5-3.7c-0.2-0.2-0.5-0.2-0.7,0L8.2,8.3C8,8.5,8,8.8,8.1,9c0.1,0.3,0.4,0.4,0.7,0.4h0.9l-2.5,2.9
	C7,12.6,7,12.8,7.1,13.1c0.1,0.3,0.4,0.4,0.7,0.4h1l-2.5,2.9c-0.2,0.2-0.2,0.5-0.1,0.8c0.1,0.3,0.4,0.4,0.7,0.4h4.3v0.8l-1,1.5
	c-0.2,0.3,0.1,0.7,0.5,0.7h3c0.4,0,0.6-0.4,0.5-0.7l-1-1.5v-0.8h4.3c0.3,0,0.5-0.2,0.7-0.4C18.2,16.9,18.2,16.6,18,16.4z"/>
</svg>
