<?xml version="1.0" standalone="no"?><!DOCTYPE svg PUBLIC "-//W3C//DTD SVG 1.1//EN" "http://www.w3.org/Graphics/SVG/1.1/DTD/svg11.dtd"><svg t="1603592933005" class="icon" viewBox="0 0 1024 1024" version="1.1" xmlns="http://www.w3.org/2000/svg" p-id="3076" xmlns:xlink="http://www.w3.org/1999/xlink" width="128" height="128"><defs><style type="text/css"></style></defs><path d="M816.128 69.12H207.872c-63.488 0-96.256 32.256-96.256 95.232v731.136c0 50.176 43.52 73.728 88.576 50.176l313.344-173.568 310.272 173.568c45.056 24.064 88.064-0.512 88.064-50.176V163.84c0.512-62.976-31.744-94.72-95.744-94.72zM361.984 303.616h171.52c19.456 0 35.84 15.872 35.84 35.84s-15.872 35.84-35.84 35.84H361.984c-19.456 0-35.84-15.872-35.84-35.84s15.872-35.84 35.84-35.84z m300.032 242.688H361.984c-19.456 0-35.84-15.872-35.84-35.84s15.872-35.84 35.84-35.84h300.032c19.456 0 35.84 15.872 35.84 35.84s-15.872 35.84-35.84 35.84z" fill="#8a8a8a" p-id="3077"></path></svg>