<?xml version="1.0" standalone="no"?><!DOCTYPE svg PUBLIC "-//W3C//DTD SVG 1.1//EN" "http://www.w3.org/Graphics/SVG/1.1/DTD/svg11.dtd"><svg t="1599730270671" class="icon" viewBox="0 0 1024 1024" version="1.1" xmlns="http://www.w3.org/2000/svg" p-id="15870" xmlns:xlink="http://www.w3.org/1999/xlink" width="128" height="128"><defs><style type="text/css"></style></defs><path d="M512 0C228.43 0 0 228.43 0 512s228.43 512 512 512 512-228.43 512-512S795.57 0 512 0z m0 945.23C271.754 945.23 78.77 752.247 78.77 512S271.753 78.77 512 78.77 945.23 271.753 945.23 512 752.247 945.23 512 945.23z m-47.262-204.8a1 1 0 1 0 78.77 0 1 1 0 1 0-78.77 0z m35.447-78.768c-19.693 0-35.447-15.754-35.447-35.447 0-15.753 11.816-63.015 15.754-74.83 3.939-11.816 11.816-23.631 19.693-31.508 7.877-11.815 19.692-19.692 35.446-35.446 7.877-7.877 39.384-35.446 43.323-43.323 3.938-3.939 7.877-11.816 11.815-15.754 3.939-7.877 15.754-47.262-19.692-82.708-23.63-19.692-47.262-23.63-59.077-23.63-47.262 0-78.77 27.569-86.646 86.646 0 0-11.816 31.507-39.385 35.446-19.692 0-35.446-11.816-39.384-31.508 0 0-7.877-27.57 11.815-66.954 15.754-31.508 39.385-63.015 86.646-78.77 51.2-15.753 98.462-11.814 129.97 0 86.646 35.447 98.46 110.278 98.46 129.97 0 11.816-3.938 47.262-15.753 63.016C618.338 512 571.077 535.63 551.385 571.077c-3.939 7.877-11.816 51.2-11.816 55.138-3.938 23.631-19.692 35.447-39.384 35.447z" p-id="15871" fill="#2B52E6"></path></svg>